<svg version="1.1" id="Layer_1" xmlns="http://www.w3.org/2000/svg" xmlns:xlink="http://www.w3.org/1999/xlink" x="0px" y="0px"
	 width="100%" viewBox="0 0 1080 1080" enable-background="new 0 0 1080 1080" xml:space="preserve">
<path fill="#D9D9D9" opacity="1.000000" stroke="none" 
	d="
M567.000000,1081.000000 
	C378.021759,1081.000000 189.543503,1081.000000 1.032628,1081.000000 
	C1.032628,721.063293 1.032628,361.126587 1.032628,1.094941 
	C360.895172,1.094941 720.790344,1.094941 1080.842773,1.094941 
	C1080.842773,360.999939 1080.842773,720.999939 1080.842773,1081.000000 
	C909.792786,1081.000000 738.646423,1081.000000 567.000000,1081.000000 
M469.551697,184.175003 
	C461.712555,187.452393 453.875305,190.734421 446.033905,194.006454 
	C388.073364,218.192062 330.098419,242.343460 272.201294,266.679993 
	C269.931000,267.634277 267.608978,270.016876 266.645477,272.297699 
	C250.374023,310.815247 234.318237,349.423889 218.207275,388.009247 
	C197.731354,437.048523 177.278442,486.097443 156.715652,535.100281 
	C154.971375,539.257019 154.922623,542.982483 156.769318,547.080261 
	C159.916763,554.064209 162.763657,561.184631 165.690918,568.266724 
	C197.190414,644.475342 228.935577,720.584534 259.909241,797.006348 
	C264.755737,808.964294 270.503601,817.971497 283.620331,820.724121 
	C284.895966,820.991821 286.053101,821.798035 287.283875,822.309448 
	C369.583496,856.504150 451.900452,890.657349 534.147034,924.979187 
	C538.955505,926.985718 542.913757,927.051697 547.768555,925.029236 
	C634.187439,889.027466 720.662964,853.161560 807.209412,817.467896 
	C812.130310,815.438477 814.833801,812.585999 816.817749,807.767578 
	C834.639160,764.485107 852.704346,721.302979 870.679016,678.083496 
	C889.101624,633.787048 907.543579,589.498535 925.796997,545.132385 
	C926.736877,542.847900 926.803894,539.536072 925.888062,537.262024 
	C918.545959,519.030334 910.863098,500.935883 903.296082,482.794647 
	C874.053894,412.689240 844.845276,342.569702 815.452881,272.527344 
	C814.440613,270.115051 811.965149,267.621185 809.561401,266.595123 
	C783.056213,255.281403 756.430786,244.249100 729.836121,233.144913 
	C668.806396,207.662933 607.769226,182.198532 546.760620,156.666229 
	C543.003967,155.094086 539.559204,154.831436 535.714661,156.460876 
	C513.934509,165.692184 492.092804,174.778366 469.551697,184.175003 
z"/>
<path fill="#F67174" opacity="1.000000" stroke="none" 
	d="
M469.911865,184.044479 
	C492.092804,174.778366 513.934509,165.692184 535.714661,156.460876 
	C539.559204,154.831436 543.003967,155.094086 546.760620,156.666229 
	C607.769226,182.198532 668.806396,207.662933 729.836121,233.144913 
	C756.430786,244.249100 783.056213,255.281403 809.561401,266.595123 
	C811.965149,267.621185 814.440613,270.115051 815.452881,272.527344 
	C844.845276,342.569702 874.053894,412.689240 903.296082,482.794647 
	C910.863098,500.935883 918.545959,519.030334 925.888062,537.262024 
	C926.803894,539.536072 926.736877,542.847900 925.796997,545.132385 
	C907.543579,589.498535 889.101624,633.787048 870.679016,678.083496 
	C852.704346,721.302979 834.639160,764.485107 816.817749,807.767578 
	C814.833801,812.585999 812.130310,815.438477 807.209412,817.467896 
	C720.662964,853.161560 634.187439,889.027466 547.768555,925.029236 
	C542.913757,927.051697 538.955505,926.985718 534.147034,924.979187 
	C451.900452,890.657349 369.583496,856.504150 287.283875,822.309448 
	C286.053101,821.798035 284.895966,820.991821 283.620331,820.724121 
	C270.503601,817.971497 264.755737,808.964294 259.909241,797.006348 
	C228.935577,720.584534 197.190414,644.475342 165.690918,568.266724 
	C162.763657,561.184631 159.916763,554.064209 156.769318,547.080261 
	C154.922623,542.982483 154.971375,539.257019 156.715652,535.100281 
	C177.278442,486.097443 197.731354,437.048523 218.207275,388.009247 
	C234.318237,349.423889 250.374023,310.815247 266.645477,272.297699 
	C267.608978,270.016876 269.931000,267.634277 272.201294,266.679993 
	C330.098419,242.343460 388.073364,218.192062 446.033905,194.006454 
	C453.875305,190.734421 461.712555,187.452393 469.911865,184.044479 
M646.003418,689.450012 
	C644.746460,691.530579 643.225037,693.498108 642.279358,695.711670 
	C638.549927,704.441711 635.016663,713.255249 631.383118,722.026367 
	C607.222595,780.348511 583.052124,838.666504 558.912476,896.997192 
	C558.458008,898.095459 558.341187,899.333496 557.830383,901.516724 
	C636.262817,869.108215 713.696655,837.112305 791.596680,804.923767 
	C790.454773,803.400208 790.041809,802.683960 789.477234,802.119385 
	C751.064392,763.710022 712.626099,725.326050 674.251953,686.878113 
	C672.172485,684.794678 670.465393,684.950745 668.101807,686.209656 
	C661.409851,689.773926 654.263184,690.818237 646.003418,689.450012 
M771.216248,610.684570 
	C744.907654,621.579163 718.607422,632.494141 692.276917,643.335449 
	C689.777466,644.364502 689.149719,645.827454 688.838074,648.552063 
	C688.091797,655.076660 686.953552,661.632874 685.106445,667.921692 
	C684.227661,670.914001 684.071472,672.696411 686.404785,674.857544 
	C692.023193,680.061340 697.502686,685.419495 702.936218,690.817993 
	C735.317383,722.990479 767.667419,755.194458 800.039856,787.375732 
	C801.378784,788.706665 802.837830,789.916687 804.890015,791.768860 
	C836.882935,713.462097 868.501465,636.071655 900.119995,558.681213 
	C899.764709,558.351440 899.409485,558.021729 899.054199,557.692017 
	C856.677673,575.259094 814.301086,592.826172 771.216248,610.684570 
M445.210846,719.863403 
	C425.981720,724.234802 408.136169,720.667297 391.754883,710.011475 
	C388.026764,707.586365 385.970886,707.982422 382.958618,711.032837 
	C353.457153,740.907715 323.801025,770.629822 294.204102,800.410583 
	C292.998474,801.623657 291.944000,802.986877 290.285065,804.894165 
	C368.569855,837.226074 445.978516,869.196167 524.724670,901.718628 
	C523.663757,898.740356 523.233948,897.355347 522.685120,896.019348 
	C508.192627,860.740112 493.688873,825.465576 479.184906,790.191101 
	C470.001221,767.855896 460.807983,745.524658 451.636871,723.184326 
	C450.585236,720.622681 449.684540,717.955750 445.210846,719.863403 
M247.506531,584.933594 
	C225.623352,575.853821 203.740189,566.774048 181.857010,557.694214 
	C181.552032,558.042725 181.247055,558.391235 180.942062,558.739746 
	C212.894257,636.485657 244.846466,714.231567 276.251221,790.645447 
	C308.897766,758.521729 341.261505,726.676392 373.605530,694.850403 
	C373.557617,694.646118 373.560181,694.461060 373.476929,694.331116 
	C372.040039,692.089111 370.539001,689.886414 369.156006,687.611938 
	C359.770325,672.176514 356.126343,655.571228 360.093719,637.823059 
	C361.156158,633.070190 359.810486,631.560059 355.736237,629.883179 
	C319.848206,615.112000 284.050629,600.121033 247.506531,584.933594 
M537.500000,658.892273 
	C526.839844,658.892395 516.173157,659.109253 505.522858,658.784973 
	C501.314758,658.656860 499.756561,660.001221 499.043091,664.091736 
	C495.690979,683.309448 485.524384,698.234680 469.447357,709.091187 
	C466.344757,711.186340 465.940796,712.902161 467.372284,716.356506 
	C488.916779,768.345825 510.290100,820.406128 531.722595,872.441895 
	C534.541138,879.285095 537.464294,886.085266 540.827209,894.063477 
	C542.158691,891.498413 542.991394,890.147034 543.592285,888.699341 
	C555.464294,860.096497 567.300598,831.478821 579.162170,802.871643 
	C595.232727,764.113281 611.271118,725.341370 627.482544,686.641907 
	C628.860107,683.353455 627.872253,682.139404 625.616455,679.716614 
	C621.174255,674.945496 617.158936,669.532898 614.142334,663.770386 
	C612.337158,660.322021 610.975281,658.765137 606.957214,658.799011 
	C584.139526,658.991943 561.319336,658.892151 537.500000,658.892273 
M549.910583,182.781921 
	C549.910583,219.771774 549.963745,256.761810 549.836487,293.751251 
	C549.822144,297.905334 550.695007,299.817596 555.310242,300.604187 
	C580.794067,304.947266 600.632996,318.273895 614.846497,339.772400 
	C617.263428,343.428162 619.432434,343.016602 622.676147,341.668243 
	C669.584595,322.169525 716.522766,302.742249 763.447083,283.281799 
	C770.147278,280.503113 776.812988,277.641113 784.861328,274.240143 
	C705.966919,241.650574 628.397705,209.608429 550.373352,177.378250 
	C550.145996,179.588348 550.028748,180.728271 549.910583,182.781921 
M398.270386,316.260406 
	C418.882416,324.818817 439.516144,333.325836 460.083923,341.989288 
	C463.285858,343.337982 464.999146,342.869598 466.949799,339.820557 
	C480.916107,317.989685 500.837677,304.898804 526.361511,300.646240 
	C531.030762,299.868317 532.205444,298.083679 532.184143,293.572479 
	C532.010620,256.917603 532.089844,220.261520 532.075073,183.605820 
	C532.074402,181.848450 531.914612,180.091125 531.778748,177.305420 
	C453.597137,209.606674 376.211884,241.578903 298.826630,273.551117 
	C298.862762,274.069305 298.898865,274.587463 298.934967,275.105621 
	C331.814301,288.720459 364.693604,302.335297 398.270386,316.260406 
M518.108948,472.385803 
	C515.191406,471.169403 513.991943,472.672913 512.942871,475.226654 
	C497.750183,512.209045 482.515381,549.174377 467.166595,586.092163 
	C465.961212,588.991394 466.427917,590.407654 468.999268,592.178650 
	C485.084442,603.256958 495.442535,618.234009 499.005859,637.606934 
	C499.573639,640.693665 500.791534,642.088867 504.225769,642.077515 
	C538.890564,641.962341 573.555847,641.980835 608.220825,642.055359 
	C611.171326,642.061707 612.282471,640.838501 613.690430,638.275085 
	C616.929443,632.378357 620.570129,626.572693 624.913696,621.466614 
	C627.099182,618.897400 627.800415,617.442505 626.492065,614.292603 
	C607.256958,567.983643 588.137573,521.626404 569.089600,475.240082 
	C567.873535,472.278564 566.471497,471.691528 563.419861,472.484589 
	C548.621582,476.330505 533.754333,476.078125 518.108948,472.385803 
M881.227661,473.314453 
	C857.350769,414.861450 833.473877,356.408417 809.596985,297.955414 
	C807.483887,299.905487 806.630188,301.655426 805.938293,303.467163 
	C798.156006,323.844055 790.403015,344.232117 782.633423,364.613861 
	C773.736938,387.951630 764.830444,411.285583 755.931946,434.622620 
	C754.845215,437.472595 753.895264,439.869873 757.260193,442.438385 
	C772.194519,453.838135 780.292114,468.902100 780.113892,487.930420 
	C780.077637,491.796295 781.473389,493.409119 785.230835,494.413025 
	C822.872314,504.469879 860.459534,514.729492 898.068237,524.909058 
	C899.236877,525.225342 900.472778,525.293274 902.566467,525.612610 
	C895.331726,507.860809 888.435120,490.938690 881.227661,473.314453 
M411.769714,428.165009 
	C398.518982,431.423920 385.277222,434.719940 372.010376,437.911987 
	C369.187683,438.591125 367.153961,439.445648 367.069214,442.980103 
	C366.828918,453.001282 362.489441,461.267273 355.328186,468.063843 
	C353.444946,469.851196 353.101288,471.269073 354.257965,473.646271 
	C371.520660,509.124908 388.710602,544.639099 405.851807,580.176636 
	C407.069366,582.700867 408.496490,583.671753 411.313812,582.810852 
	C422.722290,579.325012 434.334747,579.575195 445.905457,581.637756 
	C449.664795,582.307861 451.310211,581.156494 452.649261,577.822205 
	C457.362854,566.085144 462.306122,554.440247 467.170959,542.764038 
	C477.284973,518.489014 487.416870,494.221527 497.504272,469.935486 
	C498.606506,467.281799 500.425018,464.784515 496.250732,462.493011 
	C479.073730,453.063538 467.335114,438.746429 460.223022,420.632172 
	C458.938538,417.360565 457.420898,416.887970 454.257172,417.699097 
	C440.395020,421.253235 426.472656,424.572357 411.769714,428.165009 
M369.160858,613.762390 
	C375.132721,607.336609 380.862671,600.657471 387.196289,594.610596 
	C389.707764,592.212830 390.377197,590.714111 388.844055,587.568481 
	C371.847382,552.697388 354.933777,517.785339 338.152100,482.810364 
	C336.559357,479.490875 334.595093,478.625275 331.151672,478.996094 
	C320.912811,480.098694 311.523987,477.473053 303.669128,470.873444 
	C300.483582,468.196991 298.515778,468.209503 295.146179,470.369751 
	C264.317688,490.133972 233.357773,509.693054 202.450043,529.333801 
	C196.649902,533.019531 190.911240,536.802063 184.483017,540.968445 
	C187.102127,542.164246 188.714447,542.965271 190.375183,543.648621 
	C208.539169,551.122986 226.714691,558.569397 244.879364,566.042053 
	C284.286896,582.253662 323.679169,598.502563 363.133820,614.598511 
	C364.717468,615.244507 366.874786,614.484253 369.160858,613.762390 
M748.315796,404.785797 
	C762.319580,367.101562 776.323364,329.417358 790.735718,290.633820 
	C788.184509,291.372009 786.933350,291.604706 785.785583,292.084686 
	C733.380066,314.000763 680.993958,335.963501 628.559692,357.810608 
	C625.450745,359.105988 624.636536,360.453125 625.630127,363.778687 
	C630.995972,381.737305 630.555359,399.623474 623.989563,417.214752 
	C622.800842,420.399475 623.447205,421.865204 626.364929,423.451447 
	C644.073914,433.079010 661.710693,442.841003 679.293213,452.697998 
	C682.179932,454.316376 683.900696,453.888031 686.074829,451.453064 
	C698.751587,437.255249 715.008789,432.534485 733.456116,434.382019 
	C736.417908,434.678650 737.598694,433.988129 738.543823,431.309296 
	C741.592163,422.670044 744.873596,414.113037 748.315796,404.785797 
M452.523651,376.194061 
	C453.477631,371.975830 454.186554,367.681427 455.465973,363.564331 
	C456.426361,360.473816 455.597961,359.123993 452.692017,357.919495 
	C399.621582,335.921600 346.590302,313.829224 293.538422,291.786469 
	C292.572021,291.384949 291.456146,291.342987 290.094116,291.069885 
	C290.150970,292.188751 290.049774,292.861145 290.234100,293.443085 
	C301.197327,328.052673 312.136841,362.670105 323.318756,397.209076 
	C323.837524,398.811523 326.501343,400.694427 328.241241,400.772400 
	C342.158966,401.396088 352.685608,407.742493 360.355652,419.077454 
	C361.900360,421.360260 363.303040,422.054504 366.078003,421.360199 
	C393.701843,414.449005 421.349518,407.631012 449.030121,400.950989 
	C452.634369,400.081177 453.295349,398.390442 452.987030,394.968567 
	C452.452148,389.032990 452.525482,383.042572 452.523651,376.194061 
M838.207031,527.229614 
	C818.890930,522.111084 799.576355,516.987000 780.256714,511.881866 
	C778.099854,511.311890 776.049438,510.049713 774.271851,513.088318 
	C761.232910,535.377258 741.807800,544.638794 716.282104,540.902222 
	C712.661255,540.372131 710.909363,541.618958 709.417236,544.847961 
	C699.425781,566.468872 689.573792,588.165955 678.951538,609.476929 
	C675.547241,616.306824 674.541565,621.299622 681.097595,626.461548 
	C683.007446,627.965332 684.087708,629.039307 686.566284,627.897278 
	C691.251282,625.738770 696.091064,623.917114 700.862244,621.945007 
	C762.734924,596.370178 824.608398,570.797180 886.471558,545.199402 
	C888.311584,544.437988 890.041931,543.411377 893.104126,541.859375 
	C873.995605,536.776062 856.493896,532.120178 838.207031,527.229614 
M237.558594,487.064270 
	C254.438461,476.383820 271.295166,465.666382 288.225525,455.066559 
	C290.518219,453.631134 291.511658,452.289886 290.695221,449.443146 
	C285.716431,432.082794 291.811432,418.426727 305.385925,407.626160 
	C307.862976,405.655273 308.136993,404.047241 307.260742,401.319336 
	C296.874390,368.984283 286.580627,336.619446 276.234100,304.271545 
	C275.776550,302.841064 275.046661,301.497681 273.857056,298.767548 
	C243.154510,373.536194 213.051010,446.846069 182.947510,520.155945 
	C183.295319,520.429077 183.643127,520.702148 183.990936,520.975281 
	C201.647537,509.807281 219.304123,498.639252 237.558594,487.064270 
M598.084290,501.386414 
	C612.336670,535.855530 626.681702,570.287048 640.739197,604.835449 
	C642.787598,609.869812 644.732422,613.351868 650.936523,611.383545 
	C652.251465,610.966309 653.942688,611.356995 655.364441,611.736023 
	C658.015686,612.442871 659.278137,611.406494 660.298340,608.995117 
	C662.633362,603.476074 665.256714,598.079346 667.744751,592.624634 
	C676.175842,574.140625 684.589600,555.648743 693.037292,537.172363 
	C694.057678,534.940613 694.720215,533.211975 692.266785,531.090393 
	C674.578308,515.794250 667.838501,496.746796 673.406311,473.780151 
	C674.029053,471.211609 673.594238,469.831177 671.248169,468.560425 
	C653.237793,458.805145 635.260559,448.987946 617.334961,439.077850 
	C614.576904,437.553101 612.915527,437.959259 611.116943,440.521118 
	C604.729248,449.619904 596.910950,457.328369 587.307251,462.972076 
	C583.895142,464.977203 583.686523,466.948090 585.109253,470.245850 
	C589.462280,480.336060 593.576050,490.529510 598.084290,501.386414 
z"/>
<path fill="#D9D8D8" opacity="1.000000" stroke="none" 
	d="
M646.394409,689.448059 
	C654.263184,690.818237 661.409851,689.773926 668.101807,686.209656 
	C670.465393,684.950745 672.172485,684.794678 674.251953,686.878113 
	C712.626099,725.326050 751.064392,763.710022 789.477234,802.119385 
	C790.041809,802.683960 790.454773,803.400208 791.596680,804.923767 
	C713.696655,837.112305 636.262817,869.108215 557.830383,901.516724 
	C558.341187,899.333496 558.458008,898.095459 558.912476,896.997192 
	C583.052124,838.666504 607.222595,780.348511 631.383118,722.026367 
	C635.016663,713.255249 638.549927,704.441711 642.279358,695.711670 
	C643.225037,693.498108 644.746460,691.530579 646.394409,689.448059 
z"/>
<path fill="#D9D8D8" opacity="1.000000" stroke="none" 
	d="
M771.570374,610.538940 
	C814.301086,592.826172 856.677673,575.259094 899.054199,557.692017 
	C899.409485,558.021729 899.764709,558.351440 900.119995,558.681213 
	C868.501465,636.071655 836.882935,713.462097 804.890015,791.768860 
	C802.837830,789.916687 801.378784,788.706665 800.039856,787.375732 
	C767.667419,755.194458 735.317383,722.990479 702.936218,690.817993 
	C697.502686,685.419495 692.023193,680.061340 686.404785,674.857544 
	C684.071472,672.696411 684.227661,670.914001 685.106445,667.921692 
	C686.953552,661.632874 688.091797,655.076660 688.838074,648.552063 
	C689.149719,645.827454 689.777466,644.364502 692.276917,643.335449 
	C718.607422,632.494141 744.907654,621.579163 771.570374,610.538940 
z"/>
<path fill="#D9D8D8" opacity="1.000000" stroke="none" 
	d="
M445.608612,719.777588 
	C449.684540,717.955750 450.585236,720.622681 451.636871,723.184326 
	C460.807983,745.524658 470.001221,767.855896 479.184906,790.191101 
	C493.688873,825.465576 508.192627,860.740112 522.685120,896.019348 
	C523.233948,897.355347 523.663757,898.740356 524.724670,901.718628 
	C445.978516,869.196167 368.569855,837.226074 290.285065,804.894165 
	C291.944000,802.986877 292.998474,801.623657 294.204102,800.410583 
	C323.801025,770.629822 353.457153,740.907715 382.958618,711.032837 
	C385.970886,707.982422 388.026764,707.586365 391.754883,710.011475 
	C408.136169,720.667297 425.981720,724.234802 445.608612,719.777588 
z"/>
<path fill="#D9D8D8" opacity="1.000000" stroke="none" 
	d="
M247.866409,585.064331 
	C284.050629,600.121033 319.848206,615.112000 355.736237,629.883179 
	C359.810486,631.560059 361.156158,633.070190 360.093719,637.823059 
	C356.126343,655.571228 359.770325,672.176514 369.156006,687.611938 
	C370.539001,689.886414 372.040039,692.089111 373.476929,694.331116 
	C373.560181,694.461060 373.557617,694.646118 373.605530,694.850403 
	C341.261505,726.676392 308.897766,758.521729 276.251221,790.645447 
	C244.846466,714.231567 212.894257,636.485657 180.942062,558.739746 
	C181.247055,558.391235 181.552032,558.042725 181.857010,557.694214 
	C203.740189,566.774048 225.623352,575.853821 247.866409,585.064331 
z"/>
<path fill="#D9D8D8" opacity="1.000000" stroke="none" 
	d="
M538.000000,658.892090 
	C561.319336,658.892151 584.139526,658.991943 606.957214,658.799011 
	C610.975281,658.765137 612.337158,660.322021 614.142334,663.770386 
	C617.158936,669.532898 621.174255,674.945496 625.616455,679.716614 
	C627.872253,682.139404 628.860107,683.353455 627.482544,686.641907 
	C611.271118,725.341370 595.232727,764.113281 579.162170,802.871643 
	C567.300598,831.478821 555.464294,860.096497 543.592285,888.699341 
	C542.991394,890.147034 542.158691,891.498413 540.827209,894.063477 
	C537.464294,886.085266 534.541138,879.285095 531.722595,872.441895 
	C510.290100,820.406128 488.916779,768.345825 467.372284,716.356506 
	C465.940796,712.902161 466.344757,711.186340 469.447357,709.091187 
	C485.524384,698.234680 495.690979,683.309448 499.043091,664.091736 
	C499.756561,660.001221 501.314758,658.656860 505.522858,658.784973 
	C516.173157,659.109253 526.839844,658.892395 538.000000,658.892090 
z"/>
<path fill="#D9D8D8" opacity="1.000000" stroke="none" 
	d="
M549.911011,182.325058 
	C550.028748,180.728271 550.145996,179.588348 550.373352,177.378250 
	C628.397705,209.608429 705.966919,241.650574 784.861328,274.240143 
	C776.812988,277.641113 770.147278,280.503113 763.447083,283.281799 
	C716.522766,302.742249 669.584595,322.169525 622.676147,341.668243 
	C619.432434,343.016602 617.263428,343.428162 614.846497,339.772400 
	C600.632996,318.273895 580.794067,304.947266 555.310242,300.604187 
	C550.695007,299.817596 549.822144,297.905334 549.836487,293.751251 
	C549.963745,256.761810 549.910583,219.771774 549.911011,182.325058 
z"/>
<path fill="#D9D8D8" opacity="1.000000" stroke="none" 
	d="
M397.921631,316.105286 
	C364.693604,302.335297 331.814301,288.720459 298.934967,275.105621 
	C298.898865,274.587463 298.862762,274.069305 298.826630,273.551117 
	C376.211884,241.578903 453.597137,209.606674 531.778748,177.305420 
	C531.914612,180.091125 532.074402,181.848450 532.075073,183.605820 
	C532.089844,220.261520 532.010620,256.917603 532.184143,293.572479 
	C532.205444,298.083679 531.030762,299.868317 526.361511,300.646240 
	C500.837677,304.898804 480.916107,317.989685 466.949799,339.820557 
	C464.999146,342.869598 463.285858,343.337982 460.083923,341.989288 
	C439.516144,333.325836 418.882416,324.818817 397.921631,316.105286 
z"/>
<path fill="#D9D8D8" opacity="1.000000" stroke="none" 
	d="
M518.507080,472.501282 
	C533.754333,476.078125 548.621582,476.330505 563.419861,472.484589 
	C566.471497,471.691528 567.873535,472.278564 569.089600,475.240082 
	C588.137573,521.626404 607.256958,567.983643 626.492065,614.292603 
	C627.800415,617.442505 627.099182,618.897400 624.913696,621.466614 
	C620.570129,626.572693 616.929443,632.378357 613.690430,638.275085 
	C612.282471,640.838501 611.171326,642.061707 608.220825,642.055359 
	C573.555847,641.980835 538.890564,641.962341 504.225769,642.077515 
	C500.791534,642.088867 499.573639,640.693665 499.005859,637.606934 
	C495.442535,618.234009 485.084442,603.256958 468.999268,592.178650 
	C466.427917,590.407654 465.961212,588.991394 467.166595,586.092163 
	C482.515381,549.174377 497.750183,512.209045 512.942871,475.226654 
	C513.991943,472.672913 515.191406,471.169403 518.507080,472.501282 
z"/>
<path fill="#D9D8D8" opacity="1.000000" stroke="none" 
	d="
M881.383057,473.665527 
	C888.435120,490.938690 895.331726,507.860809 902.566467,525.612610 
	C900.472778,525.293274 899.236877,525.225342 898.068237,524.909058 
	C860.459534,514.729492 822.872314,504.469879 785.230835,494.413025 
	C781.473389,493.409119 780.077637,491.796295 780.113892,487.930420 
	C780.292114,468.902100 772.194519,453.838135 757.260193,442.438385 
	C753.895264,439.869873 754.845215,437.472595 755.931946,434.622620 
	C764.830444,411.285583 773.736938,387.951630 782.633423,364.613861 
	C790.403015,344.232117 798.156006,323.844055 805.938293,303.467163 
	C806.630188,301.655426 807.483887,299.905487 809.596985,297.955414 
	C833.473877,356.408417 857.350769,414.861450 881.383057,473.665527 
z"/>
<path fill="#D9D8D8" opacity="1.000000" stroke="none" 
	d="
M412.170898,428.070862 
	C426.472656,424.572357 440.395020,421.253235 454.257172,417.699097 
	C457.420898,416.887970 458.938538,417.360565 460.223022,420.632172 
	C467.335114,438.746429 479.073730,453.063538 496.250732,462.493011 
	C500.425018,464.784515 498.606506,467.281799 497.504272,469.935486 
	C487.416870,494.221527 477.284973,518.489014 467.170959,542.764038 
	C462.306122,554.440247 457.362854,566.085144 452.649261,577.822205 
	C451.310211,581.156494 449.664795,582.307861 445.905457,581.637756 
	C434.334747,579.575195 422.722290,579.325012 411.313812,582.810852 
	C408.496490,583.671753 407.069366,582.700867 405.851807,580.176636 
	C388.710602,544.639099 371.520660,509.124908 354.257965,473.646271 
	C353.101288,471.269073 353.444946,469.851196 355.328186,468.063843 
	C362.489441,461.267273 366.828918,453.001282 367.069214,442.980103 
	C367.153961,439.445648 369.187683,438.591125 372.010376,437.911987 
	C385.277222,434.719940 398.518982,431.423920 412.170898,428.070862 
z"/>
<path fill="#D9D8D8" opacity="1.000000" stroke="none" 
	d="
M368.962830,614.070801 
	C366.874786,614.484253 364.717468,615.244507 363.133820,614.598511 
	C323.679169,598.502563 284.286896,582.253662 244.879364,566.042053 
	C226.714691,558.569397 208.539169,551.122986 190.375183,543.648621 
	C188.714447,542.965271 187.102127,542.164246 184.483017,540.968445 
	C190.911240,536.802063 196.649902,533.019531 202.450043,529.333801 
	C233.357773,509.693054 264.317688,490.133972 295.146179,470.369751 
	C298.515778,468.209503 300.483582,468.196991 303.669128,470.873444 
	C311.523987,477.473053 320.912811,480.098694 331.151672,478.996094 
	C334.595093,478.625275 336.559357,479.490875 338.152100,482.810364 
	C354.933777,517.785339 371.847382,552.697388 388.844055,587.568481 
	C390.377197,590.714111 389.707764,592.212830 387.196289,594.610596 
	C380.862671,600.657471 375.132721,607.336609 368.962830,614.070801 
z"/>
<path fill="#D9D8D8" opacity="1.000000" stroke="none" 
	d="
M748.190430,405.155029 
	C744.873596,414.113037 741.592163,422.670044 738.543823,431.309296 
	C737.598694,433.988129 736.417908,434.678650 733.456116,434.382019 
	C715.008789,432.534485 698.751587,437.255249 686.074829,451.453064 
	C683.900696,453.888031 682.179932,454.316376 679.293213,452.697998 
	C661.710693,442.841003 644.073914,433.079010 626.364929,423.451447 
	C623.447205,421.865204 622.800842,420.399475 623.989563,417.214752 
	C630.555359,399.623474 630.995972,381.737305 625.630127,363.778687 
	C624.636536,360.453125 625.450745,359.105988 628.559692,357.810608 
	C680.993958,335.963501 733.380066,314.000763 785.785583,292.084686 
	C786.933350,291.604706 788.184509,291.372009 790.735718,290.633820 
	C776.323364,329.417358 762.319580,367.101562 748.190430,405.155029 
z"/>
<path fill="#D9D8D8" opacity="1.000000" stroke="none" 
	d="
M452.433716,376.634613 
	C452.525482,383.042572 452.452148,389.032990 452.987030,394.968567 
	C453.295349,398.390442 452.634369,400.081177 449.030121,400.950989 
	C421.349518,407.631012 393.701843,414.449005 366.078003,421.360199 
	C363.303040,422.054504 361.900360,421.360260 360.355652,419.077454 
	C352.685608,407.742493 342.158966,401.396088 328.241241,400.772400 
	C326.501343,400.694427 323.837524,398.811523 323.318756,397.209076 
	C312.136841,362.670105 301.197327,328.052673 290.234100,293.443085 
	C290.049774,292.861145 290.150970,292.188751 290.094116,291.069885 
	C291.456146,291.342987 292.572021,291.384949 293.538422,291.786469 
	C346.590302,313.829224 399.621582,335.921600 452.692017,357.919495 
	C455.597961,359.123993 456.426361,360.473816 455.465973,363.564331 
	C454.186554,367.681427 453.477631,371.975830 452.433716,376.634613 
z"/>
<path fill="#D9D8D8" opacity="1.000000" stroke="none" 
	d="
M838.599609,527.346924 
	C856.493896,532.120178 873.995605,536.776062 893.104126,541.859375 
	C890.041931,543.411377 888.311584,544.437988 886.471558,545.199402 
	C824.608398,570.797180 762.734924,596.370178 700.862244,621.945007 
	C696.091064,623.917114 691.251282,625.738770 686.566284,627.897278 
	C684.087708,629.039307 683.007446,627.965332 681.097595,626.461548 
	C674.541565,621.299622 675.547241,616.306824 678.951538,609.476929 
	C689.573792,588.165955 699.425781,566.468872 709.417236,544.847961 
	C710.909363,541.618958 712.661255,540.372131 716.282104,540.902222 
	C741.807800,544.638794 761.232910,535.377258 774.271851,513.088318 
	C776.049438,510.049713 778.099854,511.311890 780.256714,511.881866 
	C799.576355,516.987000 818.890930,522.111084 838.599609,527.346924 
z"/>
<path fill="#D9D8D8" opacity="1.000000" stroke="none" 
	d="
M237.259659,487.267761 
	C219.304123,498.639252 201.647537,509.807281 183.990936,520.975281 
	C183.643127,520.702148 183.295319,520.429077 182.947510,520.155945 
	C213.051010,446.846069 243.154510,373.536194 273.857056,298.767548 
	C275.046661,301.497681 275.776550,302.841064 276.234100,304.271545 
	C286.580627,336.619446 296.874390,368.984283 307.260742,401.319336 
	C308.136993,404.047241 307.862976,405.655273 305.385925,407.626160 
	C291.811432,418.426727 285.716431,432.082794 290.695221,449.443146 
	C291.511658,452.289886 290.518219,453.631134 288.225525,455.066559 
	C271.295166,465.666382 254.438461,476.383820 237.259659,487.267761 
z"/>
<path fill="#D9D8D8" opacity="1.000000" stroke="none" 
	d="
M597.933594,501.034607 
	C593.576050,490.529510 589.462280,480.336060 585.109253,470.245850 
	C583.686523,466.948090 583.895142,464.977203 587.307251,462.972076 
	C596.910950,457.328369 604.729248,449.619904 611.116943,440.521118 
	C612.915527,437.959259 614.576904,437.553101 617.334961,439.077850 
	C635.260559,448.987946 653.237793,458.805145 671.248169,468.560425 
	C673.594238,469.831177 674.029053,471.211609 673.406311,473.780151 
	C667.838501,496.746796 674.578308,515.794250 692.266785,531.090393 
	C694.720215,533.211975 694.057678,534.940613 693.037292,537.172363 
	C684.589600,555.648743 676.175842,574.140625 667.744751,592.624634 
	C665.256714,598.079346 662.633362,603.476074 660.298340,608.995117 
	C659.278137,611.406494 658.015686,612.442871 655.364441,611.736023 
	C653.942688,611.356995 652.251465,610.966309 650.936523,611.383545 
	C644.732422,613.351868 642.787598,609.869812 640.739197,604.835449 
	C626.681702,570.287048 612.336670,535.855530 597.933594,501.034607 
z"/>
</svg>